G04 #@! TF.FileFunction,Soldermask,Bot*
%FSLAX46Y46*%
G04 Gerber Fmt 4.6, Leading zero omitted, Abs format (unit mm)*
G04 Created by KiCad (PCBNEW 4.0.2-stable) date 01/07/2016 11:06:50*
%MOMM*%
G01*
G04 APERTURE LIST*
%ADD10C,0.100000*%
%ADD11C,0.150000*%
%ADD12C,2.400000*%
%ADD13R,1.300000X1.700000*%
%ADD14C,2.100000*%
%ADD15R,1.700000X1.300000*%
%ADD16C,2.000000*%
%ADD17O,3.600000X2.000000*%
%ADD18C,6.200000*%
%ADD19C,3.000000*%
%ADD20C,2.600000*%
%ADD21R,2.100000X1.500000*%
%ADD22R,1.500000X2.100000*%
G04 APERTURE END LIST*
D10*
D11*
X100000000Y0D02*
X100000000Y100000000D01*
X100000000Y0D02*
X0Y0D01*
X0Y100000000D02*
X100000000Y100000000D01*
X0Y0D02*
X0Y100000000D01*
D12*
X59210000Y18034000D03*
X62710000Y18034000D03*
X71148000Y18034000D03*
X74648000Y18034000D03*
D13*
X59436000Y22098000D03*
X61636000Y22098000D03*
X72222000Y22098000D03*
X74422000Y22098000D03*
X59436000Y13970000D03*
X61636000Y13970000D03*
X72222000Y13970000D03*
X74422000Y13970000D03*
D12*
X27685000Y8099500D03*
X27685000Y4599500D03*
X59210000Y31115000D03*
X62710000Y31115000D03*
X71275000Y31115000D03*
X74775000Y31115000D03*
D14*
X44216000Y35052000D03*
X46716000Y35052000D03*
D13*
X44196000Y31750000D03*
X46396000Y31750000D03*
D14*
X23622000Y78486000D03*
X23622000Y80986000D03*
D15*
X20447000Y78486000D03*
X20447000Y80686000D03*
D14*
X36088000Y48260000D03*
X38588000Y48260000D03*
D13*
X36068000Y45212000D03*
X38268000Y45212000D03*
D14*
X45720000Y77998000D03*
X45720000Y80498000D03*
D15*
X48895000Y77978000D03*
X48895000Y80178000D03*
X48768000Y55880000D03*
X48768000Y53680000D03*
D14*
X45720000Y55860000D03*
X45720000Y53360000D03*
D16*
X59055000Y6350000D03*
D17*
X62230000Y6350000D03*
D16*
X71120000Y6350000D03*
D17*
X74295000Y6350000D03*
D16*
X45085000Y6350000D03*
D17*
X48260000Y6350000D03*
D13*
X18879000Y69849500D03*
X16679000Y69849500D03*
X18880000Y67310000D03*
X16680000Y67310000D03*
X18880000Y64770000D03*
X16680000Y64770000D03*
X18880000Y62230000D03*
X16680000Y62230000D03*
D15*
X34426160Y85960900D03*
X34426160Y83760900D03*
D14*
X15767000Y27431500D03*
X18267000Y27431500D03*
D15*
X23621000Y69892500D03*
X23621000Y72092500D03*
D16*
X34417000Y93980000D03*
X34417000Y96520000D03*
X30607000Y93980000D03*
X30607000Y96520000D03*
X26797000Y93980000D03*
X26797000Y96520000D03*
X22987000Y93980000D03*
X22987000Y96520000D03*
X19177000Y93980000D03*
X19177000Y96520000D03*
X15367000Y93980000D03*
X15367000Y96520000D03*
X11557000Y93980000D03*
X11557000Y96520000D03*
X9525000Y43180000D03*
X12065000Y43180000D03*
X11430000Y69850000D03*
X13970000Y69850000D03*
X11430000Y67310000D03*
X13970000Y67310000D03*
X11430000Y64770000D03*
X13970000Y64770000D03*
X11430000Y62230000D03*
X13970000Y62230000D03*
X11430000Y59690000D03*
X13970000Y59690000D03*
X26162000Y74676000D03*
X21082000Y74676000D03*
X23622000Y74676000D03*
D18*
X5000000Y5000000D03*
X95000000Y5000000D03*
X5000000Y95000000D03*
X95000000Y95000000D03*
D19*
X5000000Y12500000D03*
X85000000Y96000000D03*
D12*
X79248000Y81748000D03*
X79248000Y76748000D03*
D20*
X88138000Y76748000D03*
X88138000Y81748000D03*
X76708000Y86400000D03*
X76708000Y91400000D03*
D12*
X85598000Y91400000D03*
X85598000Y86400000D03*
X79248000Y52110000D03*
X79248000Y57110000D03*
D20*
X88138000Y57110000D03*
X88138000Y52110000D03*
X76708000Y47458000D03*
X76708000Y42458000D03*
D12*
X85598000Y42458000D03*
X85598000Y47458000D03*
D15*
X72136000Y84244000D03*
X72136000Y86444000D03*
X72136000Y54694000D03*
X72136000Y52494000D03*
X72136000Y93642000D03*
X72136000Y95842000D03*
X72136000Y47922000D03*
X72136000Y50122000D03*
D13*
X62484000Y81534000D03*
X60284000Y81534000D03*
X62484000Y54864000D03*
X60284000Y54864000D03*
X62484000Y90932000D03*
X60284000Y90932000D03*
X62484000Y45466000D03*
X60284000Y45466000D03*
D21*
X56896000Y65102000D03*
X56896000Y68502000D03*
D15*
X63119000Y65067000D03*
X63119000Y67267000D03*
X59944000Y64178000D03*
X59944000Y66378000D03*
D14*
X71628000Y71100000D03*
X74128000Y71100000D03*
X72898000Y61488000D03*
X72898000Y63988000D03*
D13*
X71628000Y74422000D03*
X73828000Y74422000D03*
D15*
X69596000Y61722000D03*
X69596000Y59522000D03*
D13*
X71628000Y68072000D03*
X73828000Y68072000D03*
D15*
X76200000Y61722000D03*
X76200000Y59522000D03*
D22*
X94234000Y73152000D03*
X90834000Y73152000D03*
X94234000Y60706000D03*
X90834000Y60706000D03*
X59006000Y78486000D03*
X62406000Y78486000D03*
X58957000Y51689000D03*
X62357000Y51689000D03*
X59006000Y87884000D03*
X62406000Y87884000D03*
X58957000Y42291000D03*
X62357000Y42291000D03*
D16*
X96774000Y69342000D03*
X91694000Y69342000D03*
X94234000Y69342000D03*
X96774000Y64516000D03*
X91694000Y64516000D03*
X94234000Y64516000D03*
M02*
