M48
;DRILL file {KiCad 4.0.2-stable} date 01/07/2016 11:06:53
;FORMAT={-:-/ absolute / metric / decimal}
FMAT,2
METRIC,TZ
T1C0.500
T2C0.800
T3C1.000
T4C3.200
%
G90
G05
M71
T1
X5.029Y75.807
X7.62Y82.55
X11.551Y87.663
X12.058Y48.4
X13.277Y46.343
X15.356Y87.663
X16.129Y81.153
X17.78Y82.677
X17.799Y47.968
X19.246Y46.343
X19.246Y43.066
X19.283Y87.663
X19.881Y39.637
X20.339Y48.349
X21.253Y68.339
X21.253Y66.053
X21.253Y63.513
X22.986Y87.663
X23.514Y48.349
X26.257Y39.637
X26.969Y87.663
X28.238Y68.466
X28.238Y65.926
X28.238Y63.386
X30.672Y87.663
X31.496Y3.048
X31.997Y72.073
X32.258Y68.58
X33.02Y3.048
X34.415Y87.663
X34.544Y3.048
X36.703Y55.753
X36.83Y65.151
X37.973Y57.404
X37.973Y54.102
X40.132Y68.453
X40.132Y65.405
X40.386Y32.829
X41.148Y80.518
X41.148Y53.594
X41.275Y72.136
X41.402Y49.276
X41.529Y61.468
X41.656Y25.146
X43.815Y72.009
X43.815Y61.976
X45.339Y40.005
X46.482Y73.406
X46.482Y60.452
X46.526Y25.159
X46.863Y71.882
X46.863Y61.976
X48.006Y60.706
X48.006Y29.972
X48.006Y28.448
X48.006Y26.924
X48.006Y13.208
X49.022Y73.152
X50.038Y37.719
X50.419Y77.851
X50.8Y54.102
X51.816Y13.208
X52.07Y32.258
X52.07Y28.448
X52.324Y66.802
X53.467Y30.353
X53.594Y33.782
X53.594Y26.924
X53.594Y23.114
X53.721Y60.071
X54.229Y85.09
X54.229Y75.692
X54.356Y49.022
X54.356Y36.322
X54.483Y39.624
X54.737Y71.628
X54.864Y90.424
X54.864Y81.026
X54.864Y63.627
X54.864Y54.356
X54.864Y44.958
X57.15Y66.802
X57.15Y58.42
X58.547Y72.136
X58.547Y64.262
X59.944Y67.691
X59.944Y58.42
X63.627Y89.154
X63.627Y79.756
X63.627Y70.358
X63.627Y63.627
X63.627Y62.357
X63.627Y53.086
X63.627Y43.688
X63.627Y22.987
X64.008Y72.136
X64.072Y87.63
X64.135Y94.488
X64.262Y49.022
X64.325Y78.549
X64.325Y42.355
X64.389Y85.09
X64.453Y51.88
X64.897Y58.42
X65.278Y21.59
X66.929Y22.987
X68.58Y21.59
X68.961Y72.136
X69.088Y64.262
X70.231Y22.987
X70.358Y50.165
X70.485Y86.487
X70.485Y54.991
X70.612Y95.885
X70.75Y83.058
X70.866Y46.99
X70.95Y92.456
X72.136Y56.388
X73.66Y55.034
X73.66Y50.122
X74.041Y40.513
X75.184Y83.82
X75.819Y66.929
X76.962Y34.798
X78.232Y67.818
X78.232Y66.04
X78.486Y36.576
X80.264Y73.406
X80.264Y33.782
X80.264Y26.924
X80.264Y22.098
X80.264Y17.272
X80.391Y30.353
X80.518Y58.674
X80.518Y49.022
X81.026Y84.836
X81.788Y67.818
X81.788Y66.04
X81.788Y32.258
X81.788Y28.448
X82.55Y11.176
X83.82Y50.546
X84.074Y83.312
X84.328Y74.168
X84.328Y59.69
X84.328Y6.35
X89.408Y59.182
X89.662Y74.676
X90.17Y49.53
X90.424Y84.328
X97.79Y83.312
X97.79Y79.756
X97.79Y54.102
X97.79Y50.546
T2
X2.33Y89.802
X2.33Y76.594
X2.33Y68.72
X2.33Y57.29
X2.33Y45.86
X2.33Y29.35
X2.33Y9.03
X2.921Y16.764
X5.08Y14.986
X7.22Y45.796
X7.283Y53.416
X7.366Y32.766
X7.41Y90.31
X8.635Y26.145
X8.635Y22.605
X8.934Y76.086
X9.442Y85.738
X9.696Y39.637
X9.696Y36.716
X9.906Y7.366
X9.95Y2.68
X10.159Y12.699
X10.159Y10.159
X10.667Y28.177
X10.667Y20.573
X12.045Y53.416
X12.191Y14.986
X12.191Y10.159
X12.446Y32.766
X15.767Y27.431
X16.363Y35.383
X16.763Y9.905
X17.272Y3.81
X18.014Y53.353
X18.267Y27.431
X18.795Y16.002
X19.729Y59.576
X20.065Y24.383
X20.065Y22.605
X21.38Y2.68
X21.843Y30.226
X22.65Y53.988
X23.113Y18.796
X23.621Y12.699
X23.621Y10.921
X23.621Y9.143
X23.622Y80.986
X23.622Y78.486
X24.428Y44.273
X24.784Y58.535
X25.908Y35.814
X27.476Y52.21
X27.685Y8.099
X27.685Y4.599
X27.686Y27.94
X27.686Y22.606
X28.702Y14.732
X29.063Y47.13
X30.27Y56.274
X31.286Y18.301
X33.Y30.81
X33.508Y39.002
X33.826Y23.635
X34.798Y14.732
X35.56Y8.636
X36.088Y48.26
X37.337Y28.575
X37.382Y18.301
X38.481Y89.662
X38.481Y82.804
X38.588Y48.26
X38.862Y8.636
X38.862Y2.286
X39.287Y16.523
X41.954Y97.676
X42.589Y16.777
X43.053Y87.249
X43.18Y44.196
X44.216Y35.052
X45.51Y14.491
X45.593Y83.439
X45.637Y20.841
X45.637Y19.063
X45.72Y80.498
X45.72Y77.998
X45.72Y55.86
X45.72Y53.36
X46.716Y35.052
X48.133Y90.551
X48.558Y16.777
X50.419Y81.534
X50.59Y97.676
X50.844Y16.65
X50.927Y45.466
X50.927Y40.513
X52.578Y90.551
X53.384Y16.65
X53.975Y4.445
X53.975Y1.905
X59.21Y31.115
X59.21Y18.034
X59.734Y97.676
X62.71Y31.115
X62.71Y18.034
X64.135Y75.565
X67.1Y97.676
X67.31Y13.97
X67.31Y10.16
X67.31Y6.35
X67.31Y1.905
X71.148Y18.034
X71.247Y76.962
X71.275Y31.115
X71.628Y71.1
X72.898Y63.988
X72.898Y61.488
X74.128Y71.1
X74.294Y97.789
X74.648Y18.034
X74.775Y31.115
X76.073Y54.991
X76.708Y91.4
X76.708Y86.4
X76.708Y47.458
X76.708Y42.458
X76.835Y78.867
X78.359Y45.085
X78.486Y88.9
X79.375Y1.905
X81.914Y97.789
X84.455Y1.905
X85.598Y38.354
X86.36Y78.867
X86.614Y54.991
X88.138Y81.748
X88.138Y76.748
X88.138Y57.11
X88.138Y52.11
X88.138Y45.085
X88.264Y97.789
X88.264Y89.534
X89.535Y24.765
X90.17Y1.905
X90.805Y93.345
X90.805Y8.255
X92.709Y88.264
X92.964Y41.656
X93.599Y46.736
X93.98Y33.02
X93.98Y27.305
X97.79Y90.805
X97.79Y86.868
X97.79Y75.438
X97.79Y59.055
X97.79Y46.355
X97.79Y39.37
X97.79Y8.89
T3
X9.525Y43.18
X11.43Y69.85
X11.43Y67.31
X11.43Y64.77
X11.43Y62.23
X11.43Y59.69
X11.557Y96.52
X11.557Y93.98
X12.065Y43.18
X13.97Y69.85
X13.97Y67.31
X13.97Y64.77
X13.97Y62.23
X13.97Y59.69
X15.367Y96.52
X15.367Y93.98
X19.177Y96.52
X19.177Y93.98
X21.082Y74.676
X22.987Y96.52
X22.987Y93.98
X23.622Y74.676
X26.162Y74.676
X26.797Y96.52
X26.797Y93.98
X30.607Y96.52
X30.607Y93.98
X34.417Y96.52
X34.417Y93.98
X45.085Y6.35
X59.055Y6.35
X71.12Y6.35
X79.248Y81.748
X79.248Y76.748
X79.248Y57.11
X79.248Y52.11
X85.598Y91.4
X85.598Y86.4
X85.598Y47.458
X85.598Y42.458
X91.694Y69.342
X91.694Y64.516
X94.234Y69.342
X94.234Y64.516
X96.774Y69.342
X96.774Y64.516
T4
X5.Y95.
X5.Y5.
X95.Y95.
X95.Y5.
T3
X47.49Y6.35G85X49.03Y6.35
G05
X61.46Y6.35G85X63.Y6.35
G05
X73.525Y6.35G85X75.065Y6.35
G05
T0
M30
