G04 #@! TF.FileFunction,Soldermask,Top*
%FSLAX46Y46*%
G04 Gerber Fmt 4.6, Leading zero omitted, Abs format (unit mm)*
G04 Created by KiCad (PCBNEW 4.0.2-stable) date 01/07/2016 11:06:50*
%MOMM*%
G01*
G04 APERTURE LIST*
%ADD10C,0.100000*%
%ADD11C,0.150000*%
%ADD12R,1.500000X2.100000*%
%ADD13C,2.400000*%
%ADD14R,1.700000X1.300000*%
%ADD15R,1.300000X1.700000*%
%ADD16C,2.100000*%
%ADD17R,1.400000X1.400000*%
%ADD18R,2.100000X1.500000*%
%ADD19C,2.000000*%
%ADD20O,3.600000X2.000000*%
%ADD21R,1.600000X1.050000*%
%ADD22R,4.000000X2.600000*%
%ADD23R,0.950000X2.550000*%
%ADD24R,1.300000X1.600000*%
%ADD25R,1.300000X1.200000*%
%ADD26R,0.850000X1.900000*%
%ADD27C,6.200000*%
%ADD28C,3.000000*%
%ADD29R,4.000000X2.400000*%
%ADD30R,1.600000X2.400000*%
%ADD31C,2.600000*%
%ADD32R,2.600000X1.000000*%
G04 APERTURE END LIST*
D10*
D11*
X100000000Y0D02*
X100000000Y100000000D01*
X100000000Y0D02*
X0Y0D01*
X0Y100000000D02*
X100000000Y100000000D01*
X0Y0D02*
X0Y100000000D01*
D12*
X52754000Y69850000D03*
X49354000Y69850000D03*
D13*
X59210000Y18034000D03*
X62710000Y18034000D03*
X71148000Y18034000D03*
X74648000Y18034000D03*
D14*
X33020000Y11768000D03*
X33020000Y9568000D03*
D15*
X59860000Y12446000D03*
X62060000Y12446000D03*
X72052000Y12446000D03*
X74252000Y12446000D03*
D13*
X27685000Y8099500D03*
X27685000Y4599500D03*
D14*
X19557000Y5841500D03*
X19557000Y3641500D03*
D15*
X60368000Y25400000D03*
X62568000Y25400000D03*
X71290000Y25400000D03*
X73490000Y25400000D03*
X19557000Y9143500D03*
X21757000Y9143500D03*
D13*
X59210000Y31115000D03*
X62710000Y31115000D03*
D15*
X19557000Y12699500D03*
X21757000Y12699500D03*
D13*
X71275000Y31115000D03*
X74775000Y31115000D03*
D15*
X57996000Y36322000D03*
X55796000Y36322000D03*
X77046000Y36576000D03*
X74846000Y36576000D03*
X55710000Y32258000D03*
X53510000Y32258000D03*
X80348000Y32258000D03*
X78148000Y32258000D03*
X55710000Y28448000D03*
X53510000Y28448000D03*
X80348000Y28448000D03*
X78148000Y28448000D03*
D14*
X53340000Y20531000D03*
X53340000Y18331000D03*
X50800000Y20531000D03*
X50800000Y18331000D03*
D15*
X12783000Y26145500D03*
X10583000Y26145500D03*
X12783000Y22605500D03*
X10583000Y22605500D03*
X16171000Y22605500D03*
X18371000Y22605500D03*
D16*
X44216000Y35052000D03*
X46716000Y35052000D03*
D15*
X44282000Y29972000D03*
X46482000Y29972000D03*
X44282000Y26860000D03*
X46482000Y26860000D03*
X11260000Y82550000D03*
X9060000Y82550000D03*
D16*
X23622000Y78486000D03*
X23622000Y80986000D03*
D14*
X17780000Y78994000D03*
X17780000Y81194000D03*
D15*
X41699000Y40005000D03*
X43899000Y40005000D03*
D16*
X36088000Y48260000D03*
X38588000Y48260000D03*
D15*
X36576000Y43180000D03*
X38776000Y43180000D03*
D16*
X45720000Y77998000D03*
X45720000Y80498000D03*
D14*
X41148000Y76748000D03*
X41148000Y78948000D03*
D15*
X42842000Y73406000D03*
X45042000Y73406000D03*
X15791000Y43053000D03*
X17991000Y43053000D03*
X15791000Y46355000D03*
X17991000Y46355000D03*
D14*
X12065000Y51900000D03*
X12065000Y49700000D03*
D15*
X42842000Y60452000D03*
X45042000Y60452000D03*
D14*
X20320000Y51900000D03*
X20320000Y49700000D03*
X41148000Y57150000D03*
X41148000Y54950000D03*
D15*
X9695000Y46355000D03*
X11895000Y46355000D03*
D16*
X45720000Y55860000D03*
X45720000Y53360000D03*
D14*
X30225000Y60155000D03*
X30225000Y57955000D03*
D17*
X16255000Y7365500D03*
X12855000Y7365500D03*
X50037000Y25604500D03*
X50037000Y29004500D03*
X20573000Y19479500D03*
X20573000Y16079500D03*
X50038000Y32717000D03*
X50038000Y36117000D03*
D18*
X21285200Y34063200D03*
X21285200Y37463200D03*
X30175200Y34063200D03*
X30175200Y37463200D03*
D15*
X38354000Y12446000D03*
X36154000Y12446000D03*
D14*
X57658000Y23538000D03*
X57658000Y25738000D03*
X76454000Y23538000D03*
X76454000Y25738000D03*
D15*
X9060000Y78486000D03*
X11260000Y78486000D03*
X38819000Y36322000D03*
X36619000Y36322000D03*
D19*
X59055000Y6350000D03*
D20*
X62230000Y6350000D03*
D19*
X71120000Y6350000D03*
D20*
X74295000Y6350000D03*
D19*
X45085000Y6350000D03*
D20*
X48260000Y6350000D03*
D14*
X33020000Y6688000D03*
X33020000Y4488000D03*
X65278000Y25230000D03*
X65278000Y23030000D03*
X68580000Y23030000D03*
X68580000Y25230000D03*
X39243000Y20404000D03*
X39243000Y18204000D03*
X39243000Y25484000D03*
X39243000Y23284000D03*
X34417000Y89070000D03*
X34417000Y91270000D03*
X14478000Y78994000D03*
X14478000Y81194000D03*
X30607000Y89070000D03*
X30607000Y91270000D03*
X26797000Y89070000D03*
X26797000Y91270000D03*
X22987000Y89070000D03*
X22987000Y91270000D03*
X19177000Y89070000D03*
X19177000Y91270000D03*
D15*
X36619000Y40005000D03*
X38819000Y40005000D03*
D14*
X15367000Y89070000D03*
X15367000Y91270000D03*
X11557000Y89070000D03*
X11557000Y91270000D03*
X9525000Y51900000D03*
X9525000Y49700000D03*
X23495000Y49700000D03*
X23495000Y51900000D03*
X20320000Y56345000D03*
X20320000Y54145000D03*
D15*
X19220000Y69850000D03*
X21420000Y69850000D03*
X23284000Y67310000D03*
X25484000Y67310000D03*
X23284000Y64770000D03*
X25484000Y64770000D03*
X23284000Y62230000D03*
X25484000Y62230000D03*
D14*
X21285200Y45753200D03*
X21285200Y43553200D03*
X18185400Y34068700D03*
X18185400Y31868700D03*
X27000200Y45499200D03*
X27000200Y43299200D03*
D15*
X30207400Y31952700D03*
X28007400Y31952700D03*
D21*
X23755200Y40589200D03*
X21355200Y41539200D03*
X21355200Y39639200D03*
X30232200Y40589200D03*
X27832200Y41539200D03*
X27832200Y39639200D03*
D22*
X45593000Y16789400D03*
D23*
X45593000Y23050500D03*
X43053000Y23050500D03*
X48133000Y23050500D03*
X46863000Y23050500D03*
X44323000Y23050500D03*
D24*
X17791000Y49415000D03*
D25*
X17791000Y51115000D03*
X15991000Y51115000D03*
X15991000Y49215000D03*
D26*
X40048000Y70250000D03*
X39398000Y70250000D03*
X38748000Y70250000D03*
X38098000Y70250000D03*
X37448000Y70250000D03*
X36798000Y70250000D03*
X36148000Y70250000D03*
X35498000Y70250000D03*
X34848000Y70250000D03*
X34198000Y70250000D03*
X33548000Y70250000D03*
X32898000Y70250000D03*
X32248000Y70250000D03*
X31598000Y70250000D03*
X31598000Y63500000D03*
X32248000Y63500000D03*
X32898000Y63500000D03*
X33548000Y63500000D03*
X34198000Y63500000D03*
X34848000Y63500000D03*
X35498000Y63500000D03*
X36148000Y63500000D03*
X36798000Y63500000D03*
X37448000Y63500000D03*
X38098000Y63500000D03*
X38748000Y63500000D03*
X39398000Y63500000D03*
X40048000Y63500000D03*
D14*
X23622000Y72050000D03*
X23622000Y69850000D03*
X5079000Y23029500D03*
X5079000Y25229500D03*
D15*
X5885000Y36703000D03*
X8085000Y36703000D03*
X5885000Y39624000D03*
X8085000Y39624000D03*
X4402000Y70739000D03*
X2202000Y70739000D03*
X4402000Y74168000D03*
X2202000Y74168000D03*
D16*
X15767000Y27431500D03*
X18267000Y27431500D03*
D19*
X34417000Y93980000D03*
X34417000Y96520000D03*
X30607000Y93980000D03*
X30607000Y96520000D03*
X26797000Y93980000D03*
X26797000Y96520000D03*
X22987000Y93980000D03*
X22987000Y96520000D03*
X19177000Y93980000D03*
X19177000Y96520000D03*
X15367000Y93980000D03*
X15367000Y96520000D03*
X11557000Y93980000D03*
X11557000Y96520000D03*
X9525000Y43180000D03*
X12065000Y43180000D03*
X11430000Y69850000D03*
X13970000Y69850000D03*
X11430000Y67310000D03*
X13970000Y67310000D03*
X11430000Y64770000D03*
X13970000Y64770000D03*
X11430000Y62230000D03*
X13970000Y62230000D03*
X11430000Y59690000D03*
X13970000Y59690000D03*
X26162000Y74676000D03*
X21082000Y74676000D03*
X23622000Y74676000D03*
D27*
X5000000Y5000000D03*
X95000000Y5000000D03*
X5000000Y95000000D03*
X95000000Y95000000D03*
D28*
X5000000Y12500000D03*
X85000000Y96000000D03*
D29*
X14477000Y19303500D03*
D30*
X14477000Y12699500D03*
X16763000Y12699500D03*
X12191000Y12699500D03*
D17*
X41558000Y12446000D03*
X44958000Y12446000D03*
X54610000Y11860000D03*
X54610000Y8460000D03*
X79375000Y8460000D03*
X79375000Y11860000D03*
D18*
X5080000Y20242000D03*
X5080000Y16842000D03*
D15*
X57912000Y75692000D03*
X55712000Y75692000D03*
D18*
X66802000Y35892000D03*
X66802000Y39292000D03*
D15*
X62906000Y85090000D03*
X60706000Y85090000D03*
D14*
X70104000Y36746000D03*
X70104000Y38946000D03*
X62992000Y37000000D03*
X62992000Y39200000D03*
D15*
X57912000Y85090000D03*
X55712000Y85090000D03*
X62695000Y94488000D03*
X60495000Y94488000D03*
D14*
X81788000Y71458000D03*
X81788000Y69258000D03*
X81788000Y62400000D03*
X81788000Y64600000D03*
D15*
X57912000Y49022000D03*
X55712000Y49022000D03*
X63414000Y58420000D03*
X61214000Y58420000D03*
D14*
X72136000Y84244000D03*
X72136000Y86444000D03*
X72136000Y57234000D03*
X72136000Y55034000D03*
D13*
X79248000Y81748000D03*
X79248000Y76748000D03*
D31*
X88138000Y76748000D03*
X88138000Y81748000D03*
X76708000Y86400000D03*
X76708000Y91400000D03*
D13*
X85598000Y91400000D03*
X85598000Y86400000D03*
X79248000Y52110000D03*
X79248000Y57110000D03*
D31*
X88138000Y57110000D03*
X88138000Y52110000D03*
X76708000Y47458000D03*
X76708000Y42458000D03*
D13*
X85598000Y42458000D03*
X85598000Y47458000D03*
D15*
X58123000Y39624000D03*
X55923000Y39624000D03*
D14*
X72136000Y93642000D03*
X72136000Y95842000D03*
X72136000Y47922000D03*
X72136000Y50122000D03*
D15*
X62906000Y49022000D03*
X60706000Y49022000D03*
X40216000Y73406000D03*
X38016000Y73406000D03*
X40216000Y60452000D03*
X38016000Y60452000D03*
X52662000Y76200000D03*
X50462000Y76200000D03*
D14*
X50800000Y57742000D03*
X50800000Y55542000D03*
D15*
X52662000Y73152000D03*
X50462000Y73152000D03*
X51646000Y60706000D03*
X49446000Y60706000D03*
X65448000Y72136000D03*
X67648000Y72136000D03*
X65448000Y64262000D03*
X67648000Y64262000D03*
X53764000Y66802000D03*
X55964000Y66802000D03*
X53764000Y58420000D03*
X55964000Y58420000D03*
D18*
X52070000Y92534000D03*
X52070000Y95934000D03*
D14*
X48514000Y93134000D03*
X48514000Y95334000D03*
X45212000Y93134000D03*
X45212000Y95334000D03*
D16*
X71628000Y71100000D03*
X74128000Y71100000D03*
X72898000Y61488000D03*
X72898000Y63988000D03*
D12*
X85168000Y71628000D03*
X88568000Y71628000D03*
D18*
X94234000Y76630000D03*
X94234000Y73230000D03*
D12*
X85168000Y62230000D03*
X88568000Y62230000D03*
D18*
X94234000Y57228000D03*
X94234000Y60628000D03*
X78232000Y69166000D03*
X78232000Y72566000D03*
D12*
X96442000Y83312000D03*
X93042000Y83312000D03*
D18*
X78232000Y64692000D03*
X78232000Y61292000D03*
D12*
X96442000Y50546000D03*
X93042000Y50546000D03*
X69264000Y79248000D03*
X65864000Y79248000D03*
X65864000Y88646000D03*
X69264000Y88646000D03*
X69264000Y52578000D03*
X65864000Y52578000D03*
X65864000Y43180000D03*
X69264000Y43180000D03*
X69264000Y83058000D03*
X65864000Y83058000D03*
X69264000Y56388000D03*
X65864000Y56388000D03*
X65864000Y46990000D03*
X69264000Y46990000D03*
X49227000Y84074000D03*
X52627000Y84074000D03*
X49227000Y87376000D03*
X52627000Y87376000D03*
X49227000Y51308000D03*
X52627000Y51308000D03*
X49227000Y47879000D03*
X52627000Y47879000D03*
X52754000Y64008000D03*
X49354000Y64008000D03*
X68629000Y69088000D03*
X65229000Y69088000D03*
X68629000Y61087000D03*
X65229000Y61087000D03*
D19*
X96774000Y69342000D03*
X91694000Y69342000D03*
X94234000Y69342000D03*
X96774000Y64516000D03*
X91694000Y64516000D03*
X94234000Y64516000D03*
D15*
X29126000Y77978000D03*
X31326000Y77978000D03*
X29126000Y74168000D03*
X31326000Y74168000D03*
D14*
X46863000Y68242000D03*
X46863000Y70442000D03*
D15*
X34460000Y54102000D03*
X36660000Y54102000D03*
D14*
X43434000Y68242000D03*
X43434000Y70442000D03*
D15*
X34460000Y57404000D03*
X36660000Y57404000D03*
D14*
X46863000Y65616000D03*
X46863000Y63416000D03*
X43434000Y65616000D03*
X43434000Y63416000D03*
D15*
X94234000Y79756000D03*
X96434000Y79756000D03*
X94234000Y54102000D03*
X96434000Y54102000D03*
D12*
X65864000Y92456000D03*
X69264000Y92456000D03*
D32*
X56649000Y64897000D03*
X56649000Y63627000D03*
X56649000Y62357000D03*
X56649000Y61087000D03*
X61849000Y61087000D03*
X61849000Y62357000D03*
X61849000Y63627000D03*
X61849000Y64897000D03*
X56649000Y72898000D03*
X56649000Y71628000D03*
X56649000Y70358000D03*
X56649000Y69088000D03*
X61849000Y69088000D03*
X61849000Y70358000D03*
X61849000Y71628000D03*
X61849000Y72898000D03*
X61849000Y42418000D03*
X61849000Y43688000D03*
X61849000Y44958000D03*
X61849000Y46228000D03*
X56649000Y46228000D03*
X56649000Y44958000D03*
X56649000Y43688000D03*
X56649000Y42418000D03*
X61849000Y51816000D03*
X61849000Y53086000D03*
X61849000Y54356000D03*
X61849000Y55626000D03*
X56649000Y55626000D03*
X56649000Y54356000D03*
X56649000Y53086000D03*
X56649000Y51816000D03*
X61849000Y78486000D03*
X61849000Y79756000D03*
X61849000Y81026000D03*
X61849000Y82296000D03*
X56649000Y82296000D03*
X56649000Y81026000D03*
X56649000Y79756000D03*
X56649000Y78486000D03*
X61849000Y87884000D03*
X61849000Y89154000D03*
X61849000Y90424000D03*
X61849000Y91694000D03*
X56649000Y91694000D03*
X56649000Y90424000D03*
X56649000Y89154000D03*
X56649000Y87884000D03*
M02*
